Coordinates
version=1
nRows=16
nColumns=33
inDegrees=yes

Units are S.I. units (second, meters, Newtons, ...)
Angles are in degrees.

endheader
time	ground_thorax_rot_x	ground_thorax_rot_y	ground_thorax_rot_z	ground_thorax_tx	ground_thorax_ty	ground_thorax_tz	clav_prot_r	clav_elev_r	scapula_abduction_r	scapula_elevation_r	scapula_upward_rot_r	scapula_winging_r	shoulder_elv_r	plane_of_elev_r	axial_rot_r	elbow_flexion_r	pro_sup_r	wrist_flex_r	wrist_dev_r	clav_prot_l	clav_elev_l	scapula_abduction_l	scapula_elevation_l	scapula_upward_rot_l	scapula_winging_l	shoulder_elv_l	plane_of_elev_l	axial_rot_l	elbow_flexion_l	pro_sup_l	wrist_flex_l	wrist_dev_l
      3.26000000	      0.71639456	      1.94941459	     12.47600722	     -0.11529322	      1.03182633	      0.01715218	      9.67210065	     -9.89598141	     16.60614188	     -2.49903495	     -0.69031136	     -3.42320271	    -56.96856374	    -74.75964670	     81.76408617	    -51.98291570	   -128.06861030	     46.14787912	    -20.40511843	      8.40286921	     -0.39338190	     -9.64163084	    -22.21601821	    -36.55587430	     -2.81151328	     54.41256426	    -39.16565943	     -1.14362733	     53.06382876	     30.04925324	     -2.64447765	    -24.99999983
      3.27000000	      0.71759384	      1.94768389	     12.54032696	     -0.11542678	      1.03264797	      0.01712648	      9.66395624	     -9.91953099	     16.60010401	     -2.52754825	     -0.67408445	     -3.40997442	    -57.00401832	    -74.69880911	     81.80872092	    -52.04756224	   -128.06859435	     46.16192432	    -20.39994713	      8.39280969	     -0.42010344	     -9.62743975	    -22.19192742	    -36.55778838	     -2.81269219	     54.37106136	    -39.10735428	     -1.16703431	     53.11393211	     30.04196320	     -2.64896101	    -24.99999983
      3.28000000	      0.60705853	      1.96708413	     12.30987836	     -0.11567643	      1.03228614	      0.01724575	      9.66591512	     -9.82213471	     16.63299782	     -2.46983929	     -0.60291146	     -3.46534070	    -57.29914607	    -74.64267669	     82.06838661	    -53.06468615	   -128.09187759	     46.44000715	    -20.42849933	      8.51707066	     -0.23876105	     -9.80417452	    -22.30197428	    -36.42420570	     -2.74547753	     54.36273369	    -39.00350779	     -1.33286137	     53.67684166	     29.95867460	     -2.73319093	    -24.99999983
      3.29000000	      0.62650793	      2.00004334	     12.37300819	     -0.11575893	      1.03196656	      0.01719165	      9.62889183	     -9.65626563	     16.54062746	     -2.29771549	     -0.65291949	     -3.49001676	    -57.50243311	    -74.65988526	     82.13052728	    -53.73342268	   -128.11674545	     46.70166368	    -20.49267192	      8.60095019	     -0.04866318	     -9.92088203	    -22.45896354	    -36.36303802	     -2.71323065	     54.21212818	    -38.91673191	     -1.56083918	     54.24667581	     29.88545984	     -2.81361716	    -24.99999983
      3.30000000	      0.54057949	      2.00427713	     12.49035702	     -0.11596354	      1.03205642	      0.01730002	      9.61995432	     -9.61213248	     16.51215697	     -2.24764525	     -0.67835118	     -3.49277374	    -57.72547720	    -74.60310376	     82.27495466	    -54.26561459	   -128.12740512	     46.93743034	    -20.56097282	      8.68511424	      0.03150316	    -10.04956572	    -22.50090802	    -36.29246804	     -2.66109291	     54.19509013	    -38.87598490	     -1.70421915	     54.44551311	     29.85424148	     -2.85170713	    -24.99999983
      3.31000000	      0.54066825	      2.01271216	     12.50397448	     -0.11609850	      1.03194751	      0.01724358	      9.60198517	     -9.56986812	     16.48810492	     -2.21687302	     -0.65951270	     -3.50059263	    -57.85142712	    -74.58183050	     82.31873485	    -54.83459857	   -128.16089330	     47.20161101	    -20.68558987	      8.76535404	      0.11430067	    -10.17008309	    -22.54205210	    -36.21424744	     -2.60795800	     54.12032268	    -38.72781910	     -1.90044478	     54.87449480	     29.80929708	     -2.89248434	    -24.99999983
      3.32000000	      0.45965788	      2.02138625	     12.59525120	     -0.11625404	      1.03196140	      0.01730929	      9.59116512	     -9.55939415	     16.47332545	     -2.21128171	     -0.65059264	     -3.49807779	    -58.01705655	    -74.48795180	     82.43072411	    -55.36548917	   -128.19344613	     47.44968931	    -20.81247723	      8.83658098	      0.14904085	    -10.27655974	    -22.52822220	    -36.12071873	     -2.55253297	     54.14304885	    -38.64027706	     -2.00630609	     55.08405448	     29.77453271	     -2.90890446	    -24.99999983
      3.33000000	      0.43916728	      2.00722354	     12.61963102	     -0.11640967	      1.03184276	      0.01727859	      9.57556612	     -9.56380372	     16.47017396	     -2.23723122	     -0.59883916	     -3.49751731	    -58.10978998	    -74.44129403	     82.47732576	    -55.92644439	   -128.25426544	     47.71379873	    -20.99042302	      8.91326068	      0.18376169	    -10.39456999	    -22.51482347	    -36.02976916	     -2.49111076	     54.11786302	    -38.47866542	     -2.17712881	     55.43025708	     29.72234879	     -2.91503405	    -24.99999983
      3.34000000	      0.37403500	      2.02409558	     12.69958733	     -0.11656162	      1.03176618	      0.01731016	      9.56533901	     -9.58062904	     16.46209569	     -2.26089213	     -0.57949676	     -3.48822104	    -58.23284340	    -74.34613156	     82.56521045	    -56.45653700	   -128.32625362	     47.96689943	    -21.18298231	      8.97990619	      0.18744330	    -10.49410616	    -22.45947393	    -35.91575100	     -2.42799329	     54.15969138	    -38.34062297	     -2.27482579	     55.64104860	     29.66367952	     -2.90438709	    -24.99999983
      3.35000000	      0.35956878	      2.06574034	     12.73948050	     -0.11673691	      1.03146625	      0.01733633	      9.55037547	     -9.61377717	     16.42960322	     -2.28542215	     -0.59277127	     -3.45713648	    -58.32039087	    -74.30414059	     82.58721512	    -57.01392747	   -128.47139397	     48.29784831	    -21.52296091	      9.06796736	      0.19327678	    -10.62828131	    -22.40153018	    -35.79132126	     -2.35326325	     54.16269817	    -38.13409384	     -2.43821239	     55.95779970	     29.55103696	     -2.86354892	    -24.99999983
      3.36000000	      0.29268015	      2.05237984	     12.82174706	     -0.11690832	      1.03144365	      0.01727185	      9.52479338	     -9.69131333	     16.40822098	     -2.37138706	     -0.55618194	     -3.42648558	    -58.39239658	    -74.22089156	     82.65094247	    -57.51811485	   -128.61883900	     48.56915104	    -21.83424412	      9.14310368	      0.16488512	    -10.74948418	    -22.31863070	    -35.68670242	     -2.27740601	     54.21143458	    -37.97616701	     -2.53872708	     56.10756800	     29.44708502	     -2.81240418	    -24.99999983
      3.37000000	      0.26585044	      2.04958838	     12.85560715	     -0.11707286	      1.03126076	      0.01724944	      9.49640032	     -9.78301613	     16.37695917	     -2.46729392	     -0.52599468	     -3.37943305	    -58.41362931	    -74.16302082	     82.67944955	    -58.01694359	   -128.81462408	     48.84856035	    -22.21949584	      9.22143958	      0.12931492	    -10.87729482	    -22.22778498	    -35.58217199	     -2.19858578	     54.25768621	    -37.77405849	     -2.65968371	     56.30594061	     29.31953007	     -2.75200430	    -24.99999983
      3.38000000	      0.23322471	      2.00918467	     13.07731072	     -0.11713173	      1.03133726	      0.01707811	      9.47766389	     -9.82618127	     16.38583972	     -2.54334212	     -0.43985601	     -3.37053790	    -58.39168410	    -74.12180636	     82.69136987	    -58.12346829	   -128.83371150	     48.87368221	    -22.24778697	      9.22225501	      0.07791026	    -10.87621838	    -22.15243294	    -35.53297595	     -2.18465116	     54.26335059	    -37.65104893	     -2.67845500	     56.36582748	     29.30804311	     -2.75158860	    -24.99999983
      3.39000000	      0.17504159	      2.00514997	     12.95869225	     -0.11735901	      1.03089798	      0.01718149	      9.48260562	     -9.92741157	     16.41409253	     -2.64923223	     -0.40543606	     -3.34417249	    -58.42295727	    -74.04411887	     82.79685731	    -58.83501261	   -129.04283967	     49.16621808	    -22.64487523	      9.32522398	      0.02089670	    -11.04609671	    -22.02586261	    -35.39938838	     -2.07779776	     54.41237286	    -37.41282082	     -2.84537300	     56.52667556	     29.22524411	     -2.72004810	    -24.99999983
      3.40000000	      0.15699598	      2.02064402	     12.96292030	     -0.11756473	      1.03059404	      0.01717257	      9.45627237	    -10.05987715	     16.33458479	     -2.73526600	     -0.48913490	     -3.25469359	    -58.35539002	    -74.02406852	     82.81307011	    -59.34573489	   -129.36292144	     49.51086116	    -23.26422819	      9.42094499	     -0.06364604	    -11.22538960	    -21.91717913	    -35.36224428	     -1.98111033	     54.54596462	    -37.20392618	     -3.08094514	     56.60842935	     29.13683427	     -2.69304128	    -24.99999983
      3.41000000	      0.13319340	      1.97391137	     13.13171962	     -0.11759069	      1.03045633	      0.01700901	      9.43640049	    -10.09245412	     16.33478460	     -2.79184188	     -0.42414439	     -3.24751924	    -58.32008351	    -74.00758059	     82.80765685	    -59.41089457	   -129.38485505	     49.53125650	    -23.30004318	      9.42633593	     -0.09744487	    -11.23448208	    -21.86871797	    -35.33164057	     -1.97247739	     54.55966232	    -37.12486732	     -3.09915646	     56.63979980	     29.13154630	     -2.69594392	    -24.99999983
